<svg xmlns="http://www.w3.org/2000/svg" width="500" viewBox="70 170 250 20" height="500" version="1.0"><defs><clipPath id="i"><path d="M162 146.477h45V225h-45zm0 0"/></clipPath><clipPath id="a"><path d="M71.035 71.035h232.93v232.93H71.035zm0 0"/></clipPath><clipPath id="c"><path d="M71.035 71.035h232.922v232.922H71.035zm0 0"/></clipPath><clipPath id="d"><path d="M187.496 71.035c-64.32 0-116.46 52.14-116.46 116.461 0 64.32 52.14 116.461 116.46 116.461s116.461-52.14 116.461-116.46c0-64.321-52.14-116.462-116.46-116.462zm0 0"/></clipPath><clipPath id="e"><path d="M100.547 100.547h173.906v173.906H100.547zm0 0"/></clipPath><clipPath id="f"><path d="M187.5 100.547c-48.023 0-86.953 38.93-86.953 86.953s38.93 86.953 86.953 86.953 86.953-38.93 86.953-86.953-38.93-86.953-86.953-86.953zm0 0"/></clipPath><clipPath id="g"><path d="M107.105 107.105h160.79v160.79h-160.79zm0 0"/></clipPath><clipPath id="h"><path d="M187.5 107.105c-44.402 0-80.395 35.993-80.395 80.395 0 44.402 35.993 80.395 80.395 80.395 44.402 0 80.395-35.993 80.395-80.395 0-44.402-35.993-80.395-80.395-80.395zm0 0"/></clipPath><clipPath id="b"><path d="M187.5 71.035c-64.32 0-116.465 52.145-116.465 116.465S123.18 303.965 187.5 303.965 303.965 251.82 303.965 187.5 251.82 71.035 187.5 71.035zm0 0"/></clipPath><clipPath id="j"><path d="M115.527 169H171v59.227h-55.473zm0 0"/></clipPath><clipPath id="k"><path d="M195.89 156h63.532v31.121H195.89zm0 0"/></clipPath><clipPath id="l"><path d="M172.457 184.434h85.191v43.793h-85.191zm0 0"/></clipPath><clipPath id="m"><path d="M80.504 187.5H92.28v11.777H80.504zm0 0"/></clipPath><clipPath id="n"><path d="M86.395 187.5a5.89 5.89 0 1 0 0 11.777 5.888 5.888 0 0 0 0-11.777zm0 0"/></clipPath><clipPath id="o"><path d="M282.703 187.5h11.777v11.777h-11.777zm0 0"/></clipPath><clipPath id="p"><path d="M288.594 187.5a5.89 5.89 0 1 0 0 11.777 5.888 5.888 0 0 0 0-11.777zm0 0"/></clipPath></defs><g clip-path="url(#a)"><g clip-path="url(#b)"><path fill="#fff" d="M71.035 71.035h232.93v232.93H71.035zm0 0"/></g></g><g clip-path="url(#c)"><g clip-path="url(#d)"><path fill="none" d="M187.496 71.035c-64.32 0-116.46 52.14-116.46 116.461 0 64.32 52.14 116.461 116.46 116.461s116.461-52.14 116.461-116.46c0-64.321-52.14-116.462-116.46-116.462zm0 0" stroke="#00609e" stroke-width="4.5"/></g></g><g clip-path="url(#e)"><g clip-path="url(#f)"><path fill="#fff" d="M100.547 100.547h173.906v173.906H100.547zm0 0"/><path fill="none" d="M187.5 100.547c-48.023 0-86.953 38.93-86.953 86.953s38.93 86.953 86.953 86.953 86.953-38.93 86.953-86.953-38.93-86.953-86.953-86.953zm0 0" stroke="#3a73c1" stroke-width="3"/></g></g><g clip-path="url(#g)"><g clip-path="url(#h)"><path fill="#00609e" d="M107.105 107.105h160.79v160.79h-160.79zm0 0"/></g></g><g clip-path="url(#i)"><path fill="#fff" d="M168.64 224.746s.106-23.582 37.594-54.648c0 0-38.918 26.976-35.203-23.621 0 0-17.46 35.148-2.39 78.27"/></g><path fill="#fff" d="M187.746 159.32c4.031 2.57 5.04 8.2 2.254 12.575-2.79 4.375-8.316 5.835-12.352 3.265-4.03-2.57-5.043-8.2-2.253-12.574 2.789-4.371 8.316-5.836 12.351-3.266"/><g clip-path="url(#j)"><path fill="#f8b31a" d="M170.016 228.273s-16.766-13.859-17.008-58.761c0 0-3.508 43.531-37.426 11.297 0 0 14.86 33.007 54.434 47.464"/></g><path fill="#f8b31a" d="M134.512 176.398c4.191-1.375 8.797 1.2 10.289 5.743 1.488 4.547-.7 9.343-4.89 10.718-4.192 1.375-8.798-1.199-10.29-5.742-1.488-4.547.7-9.344 4.89-10.719"/><path fill="#fff" d="m249.781 171.633-25.504 38.715c-27.894-6.196-45.675 2.304-48.43 4.039 0 0 24.755-42.98 73.934-42.754"/><g clip-path="url(#k)"><path fill="#f8b31a" d="m259.422 156.066-6.04 9.168c-25.89-.445-45.538 11.637-57.48 21.871 10.942-12.484 32.141-30.554 63.52-31.039"/></g><path fill="#fff" d="m254.059 179.555-26.032 38.593c-31.195-7.46-50.75 1.72-53.879 3.352l.95-3.977c5.73-2.746 24.636-9.148 52.332-2.527l24.14-35.988c.825.168 1.653.347 2.489.547"/><g clip-path="url(#l)"><path fill="#fff" d="m257.64 185.043-26.863 39.734c-34.308-8.203-55.504 2.235-58.308 3.739l.949-3.961c5.996-2.926 26.43-10.055 56.633-2.832l25.05-37.239c.84.168 1.688.356 2.54.559"/></g><g clip-path="url(#m)"><g clip-path="url(#n)"><path fill="#00609e" d="M80.504 187.5H92.28v11.777H80.504zm0 0"/></g></g><g clip-path="url(#o)"><g clip-path="url(#p)"><path fill="#00609e" d="M282.703 187.5h11.777v11.777h-11.777zm0 0"/></g></g><path d="m113.974 105.318 13.172-10.265 2.844 3.671-8.281 6.454 1.64 2.093 7.078-5.531 2.735 3.5-7.078 5.531 1.812 2.328 8.422-6.578 2.844 3.64-13.313 10.392zM139.654 88.311c6.07-2.937 10.504-1.508 13.297 4.281 2.8 5.805 1.164 10.172-4.906 13.11l-7.531 3.625-8.391-17.39zm4.422 14.156 1.844-.89c2.344-1.133 2.91-2.957 1.703-5.469l-.734-1.516c-1.211-2.507-2.985-3.195-5.328-2.062l-1.844.89zM175.572 89.049c.582 2.574.211 4.719-1.11 6.437-1.323 1.711-3.48 2.899-6.468 3.563-3 .68-5.469.527-7.406-.453-1.93-.989-3.184-2.77-3.766-5.344l-2.531-11.266 6.047-1.359 2.515 11.172c.239 1.062.707 1.851 1.407 2.36.707.5 1.601.624 2.687.374 1.07-.238 1.82-.742 2.25-1.515.438-.77.54-1.676.313-2.72l-2.516-11.171 6.047-1.344zM192.825 77.284l7.687.125-7.062 7.844 6.906 11.469-7.328-.11-3.907-7.14-3.406 2.687-.062 4.328-6.203-.093.296-19.313 6.204.094-.125 8.25zM201.545 97.555l3.641-18.969 6.094 1.172-3.64 18.969zM225.228 83.876c6.332 2.344 8.38 6.54 6.14 12.578-2.241 6.031-6.526 7.875-12.859 5.531l-7.828-2.906 6.72-18.11zm-7.125 13.016 1.922.718c2.438.907 4.14.055 5.11-2.562l.593-1.578c.957-2.602.219-4.36-2.219-5.266l-1.921-.719zM246.736 94.158c2.07 1.324 3.508 2.836 4.313 4.531.812 1.7.703 3.39-.328 5.078l-.172.266-4.906-3.125.062-.094c.3-.469.379-.969.234-1.5-.148-.539-.578-1.039-1.296-1.5-.688-.437-1.282-.664-1.782-.687-.5-.032-.843.101-1.03.39-.274.438-.22.918.155 1.438.375.511 1.047 1.242 2.016 2.187 1.144 1.106 2.047 2.074 2.703 2.906a6.495 6.495 0 0 1 1.297 2.829c.207 1.07-.043 2.18-.75 3.328-1.23 1.926-2.793 2.937-4.688 3.031-1.898.102-3.933-.54-6.109-1.922-2.543-1.617-4.246-3.305-5.11-5.062-.867-1.758-.609-3.72.766-5.875l4.953 3.171c-.523.813-.656 1.493-.406 2.032.25.55.82 1.113 1.719 1.687.656.414 1.242.688 1.766.813.53.133.937-.016 1.218-.453.25-.399.196-.844-.156-1.344-.355-.5-1.008-1.207-1.953-2.125-1.137-1.125-2.043-2.117-2.719-2.985a6.538 6.538 0 0 1-1.312-2.968c-.188-1.125.11-2.297.89-3.516 1.133-1.781 2.657-2.648 4.563-2.61 1.914.032 3.937.727 6.062 2.079zM103.208 228.528c3.3 5.883 2.144 10.399-3.469 13.547-5.617 3.145-10.074 1.774-13.375-4.11l-4.094-7.296 16.844-9.437zm-13.875 5.282 1 1.797c1.27 2.27 3.125 2.722 5.562 1.359l1.47-.828c2.425-1.356 3.003-3.168 1.734-5.438l-1-1.797zM94.476 250.648l15.219-11.89 3.812 4.89-15.218 11.89zM122.337 252.377c1.352 1.261 2.379 2.601 3.078 4.015.707 1.418 1.004 2.817.89 4.203-.105 1.395-.687 2.672-1.75 3.828l-4.343-4.015c.55-.594.734-1.313.547-2.156-.188-.852-.652-1.625-1.39-2.313-1.075-1-2.15-1.46-3.22-1.39-1.074.062-2.093.617-3.062 1.656l-1.219 1.312c-.968 1.043-1.445 2.098-1.422 3.172.02 1.07.567 2.11 1.641 3.11.738.687 1.531 1.097 2.375 1.234.844.144 1.52-.059 2.031-.61l-3.203-2.984 2.672-2.89 7.547 7-7.328 7.906-2.344-2.172.844-1.813c-2.313-.093-4.512-1.11-6.594-3.047-2.344-2.18-3.54-4.43-3.578-6.75-.043-2.32 1.062-4.695 3.312-7.125 2.227-2.394 4.586-3.593 7.079-3.593 2.488-.008 4.968 1.132 7.437 3.422zM120.862 276.458l10.719-16.062 5.156 3.437-10.719 16.063zM147.001 274.8l-6.156 12.984-5.61-2.656 6.157-12.985-5.734-2.718 2.125-4.47 17.046 8.079-2.125 4.469zM163.42 295.148l-.126-2.844-6.547-1.656-1.468 2.453-6.157-1.563 11.563-17 6.984 1.75 2.11 20.453zm-4.376-8.36 4.047 1.016-.265-7.172-.11-.016zM174.92 277.765l6.188.36-.844 14.359 9.89.562-.28 4.922-16.079-.922zM208.965 275.667c2.79-.613 5.157-.398 7.094.641 1.938 1.031 3.192 2.844 3.766 5.437l-5.766 1.266c-.242-1.094-.726-1.894-1.453-2.406-.719-.508-1.61-.649-2.672-.422-1.219.273-2.031.855-2.437 1.75-.407.898-.461 2.031-.157 3.406l.391 1.75c.3 1.356.828 2.356 1.578 3 .75.637 1.719.824 2.906.563 1.165-.258 1.985-.754 2.454-1.485.468-.726.582-1.64.343-2.734l5.578-1.234c.563 2.574.207 4.718-1.062 6.437-1.273 1.719-3.352 2.899-6.234 3.531-3.22.711-5.84.422-7.86-.859-2.012-1.281-3.375-3.523-4.094-6.734-.707-3.22-.421-5.829.86-7.829 1.289-2.007 3.547-3.367 6.765-4.078zM219.342 273.338l5.703-2.454 5.688 13.204 9.094-3.907 1.953 4.532-14.797 6.359zM256.256 275.394l-2.203-1.797-5.61 3.797.86 2.703-5.25 3.562-5-19.937 5.969-4.047 16.656 12.031zm-9.156-2.313 3.453-2.328-5.531-4.578-.094.062zM256.383 249.342c1.742-1.75 3.523-2.836 5.344-3.266 1.82-.425 3.453.032 4.89 1.375l.235.235-4.079 4.125-.078-.078a1.795 1.795 0 0 0-1.437-.532c-.563.032-1.14.344-1.735.938-.57.586-.921 1.12-1.046 1.61-.133.48-.079.843.171 1.093.368.355.84.402 1.422.14.586-.257 1.438-.765 2.563-1.515 1.312-.875 2.441-1.547 3.39-2.016a6.506 6.506 0 0 1 3.063-.687c1.082.023 2.113.508 3.094 1.453 1.625 1.594 2.285 3.328 1.984 5.203-.293 1.867-1.344 3.719-3.156 5.563-2.125 2.136-4.137 3.449-6.031 3.937-1.895.48-3.754-.18-5.579-1.984l4.125-4.172c.688.687 1.329.969 1.922.844.594-.133 1.258-.582 2-1.344.551-.551.946-1.07 1.188-1.563.238-.488.176-.914-.188-1.28-.336-.333-.789-.38-1.359-.142-.563.243-1.39.73-2.484 1.47-1.344.886-2.508 1.57-3.5 2.046a6.735 6.735 0 0 1-3.188.64c-1.133-.05-2.21-.581-3.234-1.593-1.508-1.477-2.04-3.149-1.594-5.016.437-1.863 1.539-3.691 3.297-5.484zM267.861 235.264c1.375-2.04 2.922-3.442 4.64-4.203 1.712-.77 3.392-.625 5.048.437l.281.188-3.234 4.828-.094-.063a1.833 1.833 0 0 0-1.516-.265c-.539.136-1.047.554-1.515 1.25-.457.68-.707 1.265-.75 1.765-.04.5.09.852.39 1.047.418.281.899.246 1.438-.11.531-.363 1.273-1.023 2.219-1.984 1.136-1.113 2.125-1.988 2.968-2.625a6.393 6.393 0 0 1 2.86-1.234c1.07-.188 2.175.09 3.312.828 1.895 1.274 2.867 2.856 2.922 4.75.063 1.899-.625 3.918-2.062 6.063-1.68 2.5-3.403 4.168-5.172 5-1.77.824-3.72.523-5.844-.907l3.266-4.875c.804.543 1.48.696 2.03.453.552-.238 1.126-.8 1.72-1.687.437-.645.726-1.227.875-1.75.144-.52 0-.926-.438-1.219-.387-.258-.836-.219-1.344.125-.511.336-1.234.965-2.172 1.89-1.156 1.126-2.171 2.016-3.046 2.673a6.54 6.54 0 0 1-3 1.218c-1.125.168-2.286-.148-3.485-.953-1.758-1.175-2.597-2.718-2.515-4.625.085-1.914.824-3.922 2.218-6.015zm0 0" fill="#00609e"/></svg>